<?xml version="1.0" ?><svg data-name="Layer 1" id="Layer_1" viewBox="0 0 512 512" xmlns="http://www.w3.org/2000/svg"><path d="M255.37,45.08a18.83,18.83,0,0,0-20.47,4L134.08,148.9H65.55a18.79,18.79,0,0,0-18.79,18.8V344.3a18.79,18.79,0,0,0,18.79,18.8h68.53L234.9,462.93a18.8,18.8,0,0,0,32-13.36V62.43A18.8,18.8,0,0,0,255.37,45.08Z"/><path d="M336.69,147.81a18.8,18.8,0,1,0-26.59,26.58,115.54,115.54,0,0,1,0,163.22,18.8,18.8,0,0,0,26.59,26.59C396.34,304.54,396.34,207.47,336.69,147.81Z"/><path d="M396,88.52a18.79,18.79,0,0,0-26.58,26.58c77.69,77.69,77.7,204.1,0,281.81A18.79,18.79,0,1,0,396,423.49C488.33,331.13,488.33,180.86,396,88.52Z"/></svg>