<svg xmlns="http://www.w3.org/2000/svg" width="48" height="48" viewBox="0 0 48 48">
    <path d="M48,29.5v4.5c0,2.21 -1.79,4 -4,4h-7.09c0.06,-0.32 0.09,-0.66 0.09,-1v-6c0,-3.02 -1.05,-5.86 -2.85,-8.1 0.83,-0.68 1.78,-1.2 2.82,-1.52 -1.76,-0.91 -2.97,-2.75 -2.97,-4.88 0,-3.04 2.46,-5.5 5.5,-5.5s5.5,2.46 5.5,5.5c0,2.13 -1.21,3.97 -2.97,4.88 3.46,1.08 5.97,4.31 5.97,8.12Z"/>
    <path d="M11,31v6c0,0.34 0.03,0.68 0.09,1h-7.09c-2.21,0 -4,-1.79 -4,-4v-4.5c0,-3.81 2.51,-7.04 5.97,-8.12 -1.76,-0.91 -2.97,-2.75 -2.97,-4.88 0,-3.04 2.46,-5.5 5.5,-5.5s5.5,2.46 5.5,5.5c0,2.13 -1.21,3.97 -2.97,4.88 1.04,0.32 1.99,0.84 2.82,1.52 -1.8,2.24 -2.85,5.08 -2.85,8.1Z"/>
    <path d="M26.854,20.387c2.442,-1.093 4.146,-3.539 4.146,-6.387 0,-3.866 -3.134,-7 -7,-7s-7,3.134 -7,7c0,2.848 1.704,5.294 4.146,6.387 -4.689,1.259 -8.146,5.526 -8.146,10.613v6c0,2.209 1.791,4 4,4h14c2.209,0 4,-1.791 4,-4v-6c0,-5.086 -3.457,-9.354 -8.146,-10.613Z"/>
</svg> 