<svg xmlns="http://www.w3.org/2000/svg" width="128" height="128" viewBox="0 0 128 128">
  <defs>
    <linearGradient id="maleGradient" x1="0%" y1="0%" x2="100%" y2="100%">
      <stop offset="0%" style="stop-color:#CE12DD;stop-opacity:1" />
      <stop offset="10%" style="stop-color:#880AEC;stop-opacity:1" />
      <stop offset="100%" style="stop-color:#3100FF;stop-opacity:1" />
    </linearGradient>
  </defs>
  <circle cx="64" cy="64" r="64" fill="#DCCAFF"/>
  <path fill="url(#maleGradient)" d="M65.3,0C29.8,-0.4 0.8,27.6 0,62.8c-0.2,20.1 8.7,38.2 22.7,50c1,-0.7 1.9,-1.5 3.2,-2.2L45,100.3c2.4,-1.5 4.1,-4.1 4.1,-6.8v-7.7c0,0 -5.6,-6.8 -7.7,-15.9c-1.7,-1.2 -3,-3.2 -3,-5.3v-8.6c0,-1.9 0.7,-3.6 2.2,-4.9V38.7c0,0 -2.6,-19.3 23.7,-19.3S88,38.7 88,38.7v12.4c1.2,1.2 2.2,3 2.2,4.9v8.4c0,3 -1.9,5.3 -4.5,6c-1.5,4.5 -3.6,9 -6.2,12.8c-0.7,1 -1.5,1.9 -1.9,2.4v7.9c0,3 1.7,5.6 4.3,7l20.6,10.1c1.2,0.7 2.4,1.5 3.4,2.2c13.3,-11.1 22.3,-28.3 22.5,-47.6C128.6,29.8 100.5,0.8 65.3,0z"/>
  <path fill="#DCCAFF" d="M45,100.5l-19.1,10.3c-1.2,0.7 -2.2,1.5 -3.2,2.2c11.1,9.4 25.7,15 41.3,15s30,-5.6 41.1,-14.8c-1,-1 -2.2,-1.7 -3.4,-2.2L81.2,101c-2.6,-1.2 -4.3,-4.1 -4.3,-7V86c0.5,-0.7 1.2,-1.5 1.9,-2.4c3,-3.9 4.9,-8.2 6.2,-12.8c2.6,-0.7 4.5,-3.2 4.5,-6v-8.9c0,-1.9 -0.7,-3.6 -2.2,-4.9V38.7c0,0 2.6,-19.3 -23.7,-19.3S40,38.7 40,38.7v12.4c-1.2,1.2 -2.2,3 -2.2,4.9v8.4c0,2.2 1.2,4.3 3,5.3c2.2,9.4 7.7,15.9 7.7,15.9v7.7C49.1,96.4 47.6,99.2 45,100.5z"/>
</svg>