<?xml version="1.0" ?><svg id="Icons" style="enable-background:new 0 0 32 32;" version="1.1" viewBox="0 0 32 32" xml:space="preserve" xmlns="http://www.w3.org/2000/svg" xmlns:xlink="http://www.w3.org/1999/xlink"><style type="text/css">
	.st0{fill:none;stroke:#000000;stroke-width:2;stroke-linecap:round;stroke-linejoin:round;stroke-miterlimit:10;}
</style><path d="M27,6h-1V5c0-1.7-1.3-3-3-3H9C7.3,2,6,3.3,6,5v1c-2.2,0.2-4,2.2-4,4.5C2,13,4,15,6.5,15H14c0.6,0,1,0.4,1,1v2h-1  c-0.5,0-0.9,0.4-1,0.9l-0.7,7c-0.1,1,0.2,2.1,0.9,2.9C13.9,29.6,15,30,16,30s2.1-0.4,2.8-1.2c0.7-0.8,1-1.8,0.9-2.9l-0.7-7  c-0.1-0.5-0.5-0.9-1-0.9h-1v-2c0-1.7-1.3-3-3-3H6.5C5.1,13,4,11.9,4,10.5c0-1.2,0.9-2.2,2-2.4V9c0,1.7,1.3,3,3,3h14c1.7,0,3-1.3,3-3  V8h1c0.6,0,1-0.4,1-1S27.6,6,27,6z"/></svg>