<svg xmlns="http://www.w3.org/2000/svg" width="128" height="128" viewBox="0 0 53 53">
  <defs>
    <linearGradient id="femaleGradient" x1="15" y1="9.5845" x2="68" y2="9.5845">
      <stop offset="0%" style="stop-color:#D60BC8;stop-opacity:1" />
      <stop offset="100%" style="stop-color:#FF00BD;stop-opacity:1" />
    </linearGradient>
  </defs>
  <circle cx="26.5" cy="26.5" r="26.5" fill="#FFCFE3"/>
  <path fill="url(#femaleGradient)" d="M26.5,0C11.9,0 0,11.9 0,26.5c0,8 3.6,15.2 9.2,20.1c0.6,-0.8 1.4,-1.5 2.3,-1.9l9.1,-3.9c0.5,-0.2 0.9,-1 1.2,-1.6c0.3,-0.5 -0.1,-1.1 -0.7,-1.1h-6.4c0,0 -2.3,-0.2 -4.1,-1c-1.1,-0.5 -1.4,-1 -0.8,-2c1.9,-2.7 5.9,-9.2 6,-15.9c0,0 0.2,-10.3 10.3,-10.3c5.9,0 8.7,3.5 10,6.4c0.7,1.6 1,3.4 1.2,5.1c0.4,6.4 3.7,12.2 5.2,14.6c0.5,0.8 0.3,2 -0.6,2.5c-1.4,0.8 -3.1,0.5 -3.1,0.5h-6.5c-0.6,0 -0.9,0.9 -0.4,1.3c0.4,0.3 0.8,0.6 1,0.7l7.6,4.6c1.1,0.6 2,1.5 2.5,2.5c0,0 0.1,0 0.1,0.1c6.1,-4.9 9.9,-12.3 9.9,-20.7C53,11.9 41.1,0 26.5,0z"/>
  <path fill="#FFCFE3" d="M11.5,44.6l9.1,-3.9c0.5,-0.2 0.9,-1 1.2,-1.6c0.3,-0.5 -0.1,-1.1 -0.7,-1.1h-6.4c0,0 -2.3,-0.2 -4.1,-1c-1.1,-0.5 -1.4,-1 -0.8,-2c1.9,-2.7 5.9,-9.2 6,-15.9c0,0 0.2,-10.3 10.3,-10.3c5.9,0 8.7,3.5 10,6.4c0.7,1.6 1,3.4 1.2,5.1c0.4,6.4 3.7,12.2 5.2,14.6c0.5,0.8 0.3,2 -0.6,2.5c-1.4,0.8 -3.1,0.5 -3.1,0.5h-6.5c-0.6,0 -0.9,0.9 -0.4,1.3c0.4,0.3 0.8,0.6 1,0.7l7.6,4.6c1.1,0.6 2,1.5 2.6,2.5C38.5,50.8 32.7,53 26.4,53c-6.6,0 -12.6,-2.4 -17.2,-6.4C9.7,45.8 10.5,45.1 11.5,44.6z"/>
</svg> 